<?xml version="1.0" standalone="no"?>
<!DOCTYPE svg PUBLIC "-//W3C//DTD SVG 20010904//EN"
 "http://www.w3.org/TR/2001/REC-SVG-20010904/DTD/svg10.dtd">
<svg version="1.0" xmlns="http://www.w3.org/2000/svg"
 width="1697.000000pt" height="1336.000000pt" viewBox="0 0 1697.000000 1336.000000"
 preserveAspectRatio="xMidYMid meet">

<g transform="translate(0.000000,1336.000000) scale(0.100000,-0.100000)"
fill="#000000" stroke="none">
<path d="M10582 13330 c-208 -98 -354 -272 -424 -503 -21 -68 -22 -95 -26
-519 l-3 -448 -2917 -3 -2917 -3 -100 -22 c-263 -61 -454 -157 -647 -326 -240
-211 -392 -487 -449 -814 -18 -111 -19 -181 -19 -2540 0 -2605 -2 -2484 49
-2683 92 -360 357 -688 702 -868 114 -60 276 -115 407 -139 91 -16 339 -17
4227 -17 4437 0 4196 -3 4385 50 473 133 853 514 971 974 51 199 49 79 49
2681 0 2602 2 2482 -49 2681 -96 373 -373 707 -736 885 -204 100 -360 132
-682 141 l-221 6 -4 441 c-4 408 -6 447 -25 516 -64 232 -218 414 -436 516
l-52 24 -510 0 -510 0 -63 -30z m1458 -3945 l0 -615 -3630 0 -3630 0 0 615 0
615 3630 0 3630 0 0 -615z m-2420 -2315 l0 -620 -2420 0 -2420 0 0 620 0 620
2420 0 2420 0 0 -620z"/>
<path d="M927 3146 c-144 -53 -193 -232 -96 -349 43 -53 99 -79 168 -79 94 0
159 40 203 126 31 60 23 161 -18 218 -55 79 -170 116 -257 84z"/>
<path d="M11037 3146 c-57 -21 -103 -61 -127 -112 l-23 -46 -5 -981 c-4 -753
-2 -996 8 -1040 14 -71 63 -131 119 -147 24 -8 266 -10 746 -8 706 3 710 3
750 25 47 25 95 74 121 123 18 33 19 71 19 730 l0 695 -22 41 c-28 53 -105
121 -152 134 -22 6 -249 10 -588 10 l-553 0 0 198 c0 113 -5 214 -11 237 -7
25 -29 58 -58 86 -65 66 -141 84 -224 55z m1101 -1044 c66 -48 67 -51 67 -412
0 -361 -1 -370 -68 -411 -30 -18 -49 -19 -379 -17 l-346 3 -27 25 c-53 48 -55
64 -55 400 0 334 2 352 53 399 14 13 41 27 59 31 18 5 175 8 348 7 312 -2 315
-2 348 -25z"/>
<path d="M15653 3153 c-12 -2 -34 -18 -48 -34 l-25 -31 0 -259 0 -259 -134 0
c-127 0 -136 -1 -187 -28 -170 -88 -151 -340 30 -401 19 -6 92 -11 162 -11
l128 0 3 -527 c4 -606 3 -598 86 -685 36 -37 64 -54 122 -75 l75 -28 390 -3
c439 -4 455 -2 486 58 16 28 19 57 19 153 0 124 -8 154 -50 192 -21 19 -40 20
-314 25 -316 5 -310 4 -358 65 -23 29 -23 30 -26 427 l-3 398 123 0 c145 0
184 13 240 80 77 89 68 219 -19 302 -49 47 -91 58 -223 58 l-120 0 0 250 c0
281 -4 300 -65 326 -33 13 -234 18 -292 7z"/>
<path d="M425 2551 c-172 -79 -179 -312 -12 -396 48 -24 60 -25 209 -25 l158
0 0 -440 0 -440 -207 0 c-238 0 -263 -6 -325 -80 -72 -84 -72 -196 0 -280 71
-83 35 -80 753 -80 l637 0 53 28 c77 40 114 102 114 192 0 91 -37 153 -114
193 -54 27 -55 27 -263 27 l-208 0 0 660 0 660 -377 0 c-345 0 -381 -2 -418
-19z"/>
<path d="M2500 2561 c-95 -30 -190 -113 -237 -208 l-28 -58 -3 -741 -2 -742
22 -6 c30 -8 462 -8 482 0 14 6 16 73 16 665 l0 659 255 0 255 0 0 -659 0
-659 23 -6 c29 -8 445 -8 475 0 l22 6 0 569 0 569 253 -2 252 -3 3 -566 2
-567 23 -6 c29 -8 445 -8 475 0 l23 7 -3 726 -3 726 -24 60 c-44 110 -91 163
-191 216 l-45 24 -1010 2 c-555 1 -1021 -2 -1035 -6z"/>
<path d="M5418 2555 c-89 -33 -183 -120 -224 -209 l-24 -51 0 -742 0 -743 255
0 255 0 2 648 c0 356 1 654 2 662 1 13 37 15 253 18 l253 2 2 -662 3 -663 257
-3 258 -2 2 567 3 568 252 3 253 2 2 -567 3 -568 258 -3 257 -2 0 692 c0 392
-4 718 -10 751 -20 126 -86 220 -192 278 l-63 34 -1010 2 c-838 1 -1016 -1
-1047 -12z"/>
<path d="M8170 2548 c-39 -26 -69 -78 -70 -121 0 -21 474 -1308 592 -1605 l20
-52 174 0 c96 0 174 -3 174 -6 0 -3 -98 -112 -217 -242 -232 -254 -282 -321
-313 -421 -35 -111 -62 -101 268 -101 l287 0 19 43 c17 38 86 206 231 562 621
1528 725 1788 725 1817 0 46 -29 99 -69 125 -31 21 -45 23 -173 23 -107 0
-148 -4 -173 -16 -61 -29 -53 -10 -210 -459 -36 -104 -77 -219 -90 -255 -13
-36 -72 -202 -131 -370 -58 -168 -111 -318 -117 -334 -10 -30 -22 -3 -136 324
-11 30 -38 107 -61 170 -23 63 -46 126 -50 140 -5 14 -29 81 -53 150 -25 69
-80 221 -121 339 -83 232 -94 256 -134 286 -24 18 -46 20 -182 23 -149 3 -157
2 -190 -20z"/>
<path d="M13164 2546 c-28 -13 -67 -43 -87 -67 -69 -80 -68 -69 -65 -810 l3
-664 23 -47 c27 -54 78 -103 136 -129 39 -17 81 -19 712 -19 742 0 724 -1 800
64 22 18 50 55 64 82 l25 49 0 685 0 685 -30 55 c-33 60 -96 114 -153 130 -24
6 -276 10 -707 10 l-670 0 -51 -24z m1081 -436 c26 -13 49 -34 63 -59 21 -38
22 -48 22 -363 0 -321 0 -325 -22 -358 -13 -18 -36 -43 -51 -54 -28 -20 -39
-21 -360 -21 -373 0 -374 0 -416 75 -20 36 -21 51 -21 365 0 312 1 329 20 360
11 18 40 43 63 54 40 20 58 21 351 21 289 0 312 -1 351 -20z"/>
<path d="M10199 1222 c-150 -78 -158 -288 -15 -376 151 -94 336 7 336 184 0
171 -169 272 -321 192z"/>
</g>
</svg>
